<svg width="57" height="56" viewBox="0 0 57 56" fill="none" xmlns="http://www.w3.org/2000/svg">
<circle cx="28.5" cy="28" r="28" fill="#C9D336"/>
<path d="M12.5 37.8182V33.4545C12.5 32.6303 12.7848 31.9394 13.3545 31.3818C13.9242 30.8242 14.6091 30.5455 15.4091 30.5455H20.1727C20.6576 30.5455 21.1182 30.6667 21.5545 30.9091C21.9909 31.1515 22.3424 31.4788 22.6091 31.8909C23.3121 32.8364 24.1788 33.5758 25.2091 34.1091C26.2394 34.6424 27.3364 34.9091 28.5 34.9091C29.6879 34.9091 30.797 34.6424 31.8273 34.1091C32.8576 33.5758 33.7121 32.8364 34.3909 31.8909C34.7061 31.4788 35.0758 31.1515 35.5 30.9091C35.9242 30.6667 36.3667 30.5455 36.8273 30.5455H41.5909C42.4152 30.5455 43.1061 30.8242 43.6636 31.3818C44.2212 31.9394 44.5 32.6303 44.5 33.4545V37.8182C44.5 38.2303 44.3606 38.5758 44.0818 38.8545C43.803 39.1333 43.4576 39.2727 43.0455 39.2727H35.7727C35.3606 39.2727 35.0152 39.1333 34.7364 38.8545C34.4576 38.5758 34.3182 38.2303 34.3182 37.8182V35.9636C33.4697 36.5697 32.5545 37.0303 31.5727 37.3455C30.5909 37.6606 29.5667 37.8182 28.5 37.8182C27.4576 37.8182 26.4394 37.6545 25.4455 37.3273C24.4515 37 23.5303 36.5333 22.6818 35.9273V37.8182C22.6818 38.2303 22.5424 38.5758 22.2636 38.8545C21.9848 39.1333 21.6394 39.2727 21.2273 39.2727H13.9545C13.5424 39.2727 13.197 39.1333 12.9182 38.8545C12.6394 38.5758 12.5 38.2303 12.5 37.8182ZM28.5 33.4545C27.5788 33.4545 26.7061 33.2424 25.8818 32.8182C25.0576 32.3939 24.3667 31.8061 23.8091 31.0545C23.397 30.4485 22.8818 29.9697 22.2636 29.6182C21.6455 29.2667 20.9727 29.0909 20.2455 29.0909C20.7788 28.1939 21.9061 27.4848 23.6273 26.9636C25.3485 26.4424 26.9727 26.1818 28.5 26.1818C30.0273 26.1818 31.6515 26.4424 33.3727 26.9636C35.0939 27.4848 36.2212 28.1939 36.7545 29.0909C36.0515 29.0909 35.3848 29.2667 34.7545 29.6182C34.1242 29.9697 33.603 30.4485 33.1909 31.0545C32.6576 31.8303 31.9788 32.4242 31.1545 32.8364C30.3303 33.2485 29.4455 33.4545 28.5 33.4545ZM16.8636 29.0909C15.6515 29.0909 14.6212 28.6667 13.7727 27.8182C12.9242 26.9697 12.5 25.9394 12.5 24.7273C12.5 23.4909 12.9242 22.4545 13.7727 21.6182C14.6212 20.7818 15.6515 20.3636 16.8636 20.3636C18.1 20.3636 19.1364 20.7818 19.9727 21.6182C20.8091 22.4545 21.2273 23.4909 21.2273 24.7273C21.2273 25.9394 20.8091 26.9697 19.9727 27.8182C19.1364 28.6667 18.1 29.0909 16.8636 29.0909ZM40.1364 29.0909C38.9242 29.0909 37.8939 28.6667 37.0455 27.8182C36.197 26.9697 35.7727 25.9394 35.7727 24.7273C35.7727 23.4909 36.197 22.4545 37.0455 21.6182C37.8939 20.7818 38.9242 20.3636 40.1364 20.3636C41.3727 20.3636 42.4091 20.7818 43.2455 21.6182C44.0818 22.4545 44.5 23.4909 44.5 24.7273C44.5 25.9394 44.0818 26.9697 43.2455 27.8182C42.4091 28.6667 41.3727 29.0909 40.1364 29.0909ZM28.5 24.7273C27.2879 24.7273 26.2576 24.303 25.4091 23.4545C24.5606 22.6061 24.1364 21.5758 24.1364 20.3636C24.1364 19.1273 24.5606 18.0909 25.4091 17.2545C26.2576 16.4182 27.2879 16 28.5 16C29.7364 16 30.7727 16.4182 31.6091 17.2545C32.4455 18.0909 32.8636 19.1273 32.8636 20.3636C32.8636 21.5758 32.4455 22.6061 31.6091 23.4545C30.7727 24.303 29.7364 24.7273 28.5 24.7273Z" fill="white"/>
</svg>
